# xmcd CD database file
#
# Track frame offsets:
#	150
#	23702
#	50566
#	90404
#	98525
#	121273
#	140703
#	169933
#
# Disc length: 2550 seconds
#
# Revision: 0
# Processed by: cddbd v1.5.2PL0 Copyright (c) Steve Scherf et al.
# Submitted via: CDex 1.70beta3
#
DISCID=6009f408
DTITLE=Liberty Ellman - Radiate
DYEAR=2014
DGENRE=Jazz
TTITLE0=Supercell
TTITLE1=Furihermore
TTITLE2=Rhinocerisms
TTITLE3=Moment Twice
TTITLE4=A Motive
TTITLE5=Skeletope
TTITLE6=Vibrograph
TTITLE7=Enigmatic Runner
EXTD=YEAR: 2014
EXTT0=
EXTT1=
EXTT2=
EXTT3=
EXTT4=
EXTT5=
EXTT6=
EXTT7=
PLAYORDER=
